# xmcd CD database file
#
# Track frame offsets:
#	150
#	19906
#	45999
#	66863
#	96449
#	125054
#	146455
#	175326
#	183315
#	202770
#	234105
#
# Disc length: 3444 seconds
#
# Revision: 0
# Processed by: cddbd v1.5.2PL0 Copyright (c) Steve Scherf et al.
# Submitted via: CDex 1.70beta1
#
DISCID=900d720b
DTITLE=西山瞳 - Parallax
DYEAR=2008
DGENRE=Jazz
TTITLE0=Bull's-Eye
TTITLE1=Softly as in a morning sunrise
TTITLE2=Front man
TTITLE3=Changing
TTITLE4=The other side of midnight
TTITLE5=Images and words
TTITLE6=Invisible world
TTITLE7=Omoi-gusa
TTITLE8=Blue nowhere
TTITLE9=Parallax
TTITLE10=Aprilis
EXTD=YEAR: 2008
EXTT0=
EXTT1=
EXTT2=
EXTT3=
EXTT4=
EXTT5=
EXTT6=
EXTT7=
EXTT8=
EXTT9=
EXTT10=
PLAYORDER=
